<?xml version="1.0" encoding="UTF-8" standalone="no"?>
<!-- Created with Inkscape (http://www.inkscape.org/) -->

<svg
   xmlns:osb="http://www.openswatchbook.org/uri/2009/osb"
   xmlns:dc="http://purl.org/dc/elements/1.1/"
   xmlns:cc="http://creativecommons.org/ns#"
   xmlns:rdf="http://www.w3.org/1999/02/22-rdf-syntax-ns#"
   xmlns:svg="http://www.w3.org/2000/svg"
   xmlns="http://www.w3.org/2000/svg"
   xmlns:xlink="http://www.w3.org/1999/xlink"
   xmlns:sodipodi="http://sodipodi.sourceforge.net/DTD/sodipodi-0.dtd"
   xmlns:inkscape="http://www.inkscape.org/namespaces/inkscape"
   width="27.125"
   height="27.125"
   id="svg2"
   version="1.1"
   inkscape:version="0.48.2 r9819"
   sodipodi:docname="weavy-logo.svg"
   inkscape:export-filename="/home/kai/spielwiese/weavy/media/weavy-logo.png"
   inkscape:export-xdpi="358.65503"
   inkscape:export-ydpi="358.65503">
  <defs
     id="defs4">
    <linearGradient
       id="linearGradient4137"
       osb:paint="solid">
      <stop
         style="stop-color:#494949;stop-opacity:1;"
         offset="0"
         id="stop4139" />
    </linearGradient>
    <linearGradient
       id="linearGradient3765"
       osb:paint="gradient">
      <stop
         style="stop-color:#5f5f5f;stop-opacity:1;"
         offset="0"
         id="stop3767" />
      <stop
         id="stop3773"
         offset="0.5"
         style="stop-color:#5f5f5f;stop-opacity:0.35051546;" />
      <stop
         style="stop-color:#5f5f5f;stop-opacity:1;"
         offset="1"
         id="stop3769" />
    </linearGradient>
    <linearGradient
       id="linearGradient3757">
      <stop
         style="stop-color:#434343;stop-opacity:1;"
         offset="0"
         id="stop3759" />
      <stop
         style="stop-color:#434343;stop-opacity:0;"
         offset="1"
         id="stop3761" />
    </linearGradient>
    <linearGradient
       id="linearGradient5201"
       osb:paint="solid">
      <stop
         style="stop-color:#ac9393;stop-opacity:1;"
         offset="0"
         id="stop5203" />
    </linearGradient>
    <linearGradient
       inkscape:collect="always"
       xlink:href="#linearGradient3765"
       id="linearGradient3771"
       x1="212.98317"
       y1="390.04559"
       x2="235.70775"
       y2="412.72372"
       gradientUnits="userSpaceOnUse" />
  </defs>
  <sodipodi:namedview
     id="base"
     pagecolor="#ffffff"
     bordercolor="#666666"
     borderopacity="1.0"
     inkscape:pageopacity="0.0"
     inkscape:pageshadow="2"
     inkscape:zoom="12.523077"
     inkscape:cx="15.333084"
     inkscape:cy="14.171342"
     inkscape:document-units="px"
     inkscape:current-layer="layer1"
     showgrid="false"
     inkscape:window-width="1024"
     inkscape:window-height="581"
     inkscape:window-x="0"
     inkscape:window-y="1"
     inkscape:window-maximized="1"
     fit-margin-top="1"
     fit-margin-left="1"
     fit-margin-right="1"
     fit-margin-bottom="1" />
  <metadata
     id="metadata7">
    <rdf:RDF>
      <cc:Work
         rdf:about="">
        <dc:format>image/svg+xml</dc:format>
        <dc:type
           rdf:resource="http://purl.org/dc/dcmitype/StillImage" />
        <dc:title></dc:title>
      </cc:Work>
    </rdf:RDF>
  </metadata>
  <g
     inkscape:label="Layer 1"
     inkscape:groupmode="layer"
     id="layer1"
     transform="translate(-210.74304,-387.90201)">
    <rect
       style="fill:url(#linearGradient3771);fill-opacity:1;stroke:#434343;stroke-width:0.1;stroke-linejoin:round;stroke-miterlimit:4;stroke-opacity:1;stroke-dasharray:none"
       id="rect4086"
       width="25"
       height="25"
       x="211.80554"
       y="388.96451"
       ry="3.472549" />
    <g
       style="font-size:40px;font-style:normal;font-weight:normal;line-height:125%;letter-spacing:0px;word-spacing:0px;fill:#ffffff;fill-opacity:1;stroke:#797979;stroke-width:0.02606678;stroke-linecap:round;stroke-linejoin:round;stroke-miterlimit:4;stroke-opacity:1;stroke-dasharray:none;font-family:Sans"
       id="text5231"
       transform="matrix(1.9181503,0,0,1.9181503,-197.68305,-389.54948)">
      <path
         d="m 216.72447,408.35342 c 0.19791,10e-6 0.35254,0.0928 0.46387,0.27832 0.11132,0.17319 0.16699,0.40203 0.16699,0.68653 0,0.25977 -0.0371,0.58757 -0.11133,0.9834 l -0.55664,2.83886 c -0.099,0.59376 -0.14844,0.9834 -0.14843,1.16895 -1e-5,0.34635 0.0557,0.59375 0.16699,0.74219 0.11132,0.14843 0.30924,0.22265 0.59375,0.22265 0.27213,0 0.58756,-0.1608 0.94629,-0.48242 0.37108,-0.32161 0.72362,-0.72981 1.05761,-1.22461 0.29687,-2.43684 0.50097,-3.86555 0.61231,-4.28613 0.1608,-0.61848 0.40819,-0.92773 0.74219,-0.92774 0.47004,10e-6 0.70507,0.2907 0.70507,0.87207 0,0.80405 -0.25358,1.89877 -0.76074,3.28418 -0.0866,0.6185 -0.12989,1.01433 -0.12988,1.1875 -1e-5,0.59376 0.0495,1.00814 0.14844,1.24317 0.11132,0.22266 0.31542,0.33398 0.6123,0.33398 0.37109,0 0.78547,-0.27213 1.24317,-0.8164 0.47004,-0.55664 0.85969,-1.19369 1.16894,-1.91114 0.3216,-0.72981 0.48241,-1.3483 0.48242,-1.85547 -1e-5,-0.25975 -0.0928,-0.53807 -0.27832,-0.83496 -0.17319,-0.29686 -0.25977,-0.51952 -0.25976,-0.66796 -1e-5,-0.22265 0.0742,-0.41439 0.22265,-0.5752 0.14843,-0.17317 0.32779,-0.25976 0.53809,-0.25977 0.23501,10e-6 0.43293,0.0495 0.59375,0.14844 0.17316,0.32162 0.25975,0.68035 0.25976,1.07617 -1e-5,0.77931 -0.167,1.59571 -0.50097,2.44922 -0.334,0.84115 -0.7422,1.57715 -1.22461,2.20801 -0.48243,0.63086 -0.99578,1.15658 -1.54004,1.57715 -0.54428,0.4082 -1.01433,0.6123 -1.41016,0.6123 -0.43295,0 -0.77312,-0.14843 -1.0205,-0.44531 -0.23504,-0.30924 -0.35255,-0.72363 -0.35254,-1.24316 -0.97722,1.12565 -1.83074,1.68847 -2.56055,1.68847 -0.42058,0 -0.75456,-0.14843 -1.00195,-0.44531 -0.2474,-0.30924 -0.3711,-0.70508 -0.3711,-1.1875 0,-0.34635 0.0247,-0.61849 0.0742,-0.81641 l 0.63086,-3.26562 c 0.0742,-0.25976 0.11133,-0.50716 0.11133,-0.74219 0,-0.30924 -0.0618,-0.46386 -0.18555,-0.46387 -0.0495,1e-5 -0.11751,0.0309 -0.2041,0.0928 -0.0866,0.0495 -0.17936,0.11752 -0.27832,0.2041 -0.0866,0.0866 -0.16699,0.167 -0.24121,0.24121 -0.0742,0.0742 -0.14226,0.14844 -0.2041,0.22266 l -0.0928,0.11133 c -0.0247,0 -0.0742,-0.0557 -0.14843,-0.167 -0.0618,-0.12369 -0.0928,-0.21028 -0.0928,-0.25976 0.14844,-0.24739 0.45768,-0.57519 0.92774,-0.9834 0.48242,-0.4082 0.88443,-0.6123 1.20605,-0.61231"
         style="font-size:19px;font-style:italic;font-variant:normal;font-stretch:normal;fill:#ffffff;fill-opacity:1;stroke:#797979;stroke-width:0.02606678;stroke-linecap:round;stroke-linejoin:round;stroke-miterlimit:4;stroke-opacity:1;stroke-dasharray:none;font-family:Crimson Text;-inkscape-font-specification:Crimson Text Italic"
         id="path2999"
         inkscape:connector-curvature="0" />
    </g>
  </g>
</svg>
